<mxfile host="app.diagrams.net" modified="2022-07-24T06:48:19.534Z" agent="5.0 (Windows NT 6.1; Win64; x64) AppleWebKit/537.36 (KHTML, like Gecko) Chrome/103.0.0.0 Safari/537.36" etag="0aSBlP3n_3GadvyUOto2" version="20.2.0" type="github">
  <diagram id="ENKg4sMpYyLe6CqvI0Q1" name="Page-2">
    <mxGraphModel dx="1566" dy="1102" grid="0" gridSize="10" guides="1" tooltips="1" connect="1" arrows="1" fold="1" page="0" pageScale="1" pageWidth="850" pageHeight="1100" math="0" shadow="0">
      <root>
        <mxCell id="0" />
        <mxCell id="1" parent="0" />
        <mxCell id="kKK-9EgUeei59JqBfIfj-16" value="SISTEM INFOMASI MANAJEMEN SURAT" style="swimlane;fontStyle=1;align=center;horizontal=1;startSize=30;collapsible=0;html=1;" parent="1" vertex="1">
          <mxGeometry x="192" y="-170" width="690" height="551" as="geometry" />
        </mxCell>
        <mxCell id="kKK-9EgUeei59JqBfIfj-40" value="SURAT MASUK" style="ellipse;whiteSpace=wrap;html=1;fillColor=none;strokeColor=default;" parent="kKK-9EgUeei59JqBfIfj-16" vertex="1">
          <mxGeometry x="32" y="84" width="140" height="70" as="geometry" />
        </mxCell>
        <mxCell id="kKK-9EgUeei59JqBfIfj-41" value="&lt;div&gt;SURAT KELUAR&lt;/div&gt;" style="ellipse;whiteSpace=wrap;html=1;fillColor=none;strokeColor=default;" parent="kKK-9EgUeei59JqBfIfj-16" vertex="1">
          <mxGeometry x="37" y="184" width="140" height="70" as="geometry" />
        </mxCell>
        <mxCell id="kKK-9EgUeei59JqBfIfj-30" value="DISPOSISI" style="ellipse;whiteSpace=wrap;html=1;fillColor=none;strokeColor=default;" parent="kKK-9EgUeei59JqBfIfj-16" vertex="1">
          <mxGeometry x="275" y="404" width="140" height="70" as="geometry" />
        </mxCell>
        <mxCell id="kKK-9EgUeei59JqBfIfj-52" value="HAK AKSES" style="ellipse;whiteSpace=wrap;html=1;fillColor=none;strokeColor=default;" parent="kKK-9EgUeei59JqBfIfj-16" vertex="1">
          <mxGeometry x="503" y="84" width="140" height="70" as="geometry" />
        </mxCell>
        <mxCell id="kKK-9EgUeei59JqBfIfj-53" value="KELOLA USER" style="ellipse;whiteSpace=wrap;html=1;fillColor=none;strokeColor=default;" parent="kKK-9EgUeei59JqBfIfj-16" vertex="1">
          <mxGeometry x="503" y="184" width="140" height="70" as="geometry" />
        </mxCell>
        <mxCell id="kKK-9EgUeei59JqBfIfj-34" value="LOGIN" style="ellipse;whiteSpace=wrap;html=1;fillColor=none;strokeColor=default;" parent="kKK-9EgUeei59JqBfIfj-16" vertex="1">
          <mxGeometry x="273" y="263" width="140" height="70" as="geometry" />
        </mxCell>
        <mxCell id="kKK-9EgUeei59JqBfIfj-36" value="&amp;lt;&amp;lt;include&amp;gt;&amp;gt;" style="edgeStyle=none;html=1;endArrow=open;verticalAlign=bottom;dashed=1;labelBackgroundColor=none;rounded=0;exitX=1;exitY=0.5;exitDx=0;exitDy=0;entryX=0;entryY=0;entryDx=0;entryDy=0;" parent="kKK-9EgUeei59JqBfIfj-16" source="kKK-9EgUeei59JqBfIfj-41" target="kKK-9EgUeei59JqBfIfj-34" edge="1">
          <mxGeometry width="160" relative="1" as="geometry">
            <mxPoint x="267.94000000000005" y="270.01" as="sourcePoint" />
            <mxPoint x="459" y="315" as="targetPoint" />
          </mxGeometry>
        </mxCell>
        <mxCell id="KPNC4NThqTOK_JKKGGno-3" value="&amp;lt;&amp;lt;include&amp;gt;&amp;gt;" style="edgeStyle=none;html=1;endArrow=open;verticalAlign=bottom;dashed=1;labelBackgroundColor=none;rounded=0;exitX=1;exitY=0.5;exitDx=0;exitDy=0;entryX=0.343;entryY=-0.008;entryDx=0;entryDy=0;entryPerimeter=0;" parent="kKK-9EgUeei59JqBfIfj-16" source="kKK-9EgUeei59JqBfIfj-40" target="kKK-9EgUeei59JqBfIfj-34" edge="1">
          <mxGeometry width="160" relative="1" as="geometry">
            <mxPoint x="297" y="167" as="sourcePoint" />
            <mxPoint x="335" y="175" as="targetPoint" />
          </mxGeometry>
        </mxCell>
        <mxCell id="OFAnYSlsn8Oz3mkXLUl3-8" value="&amp;lt;&amp;lt;include&amp;gt;&amp;gt;" style="edgeStyle=none;html=1;endArrow=open;verticalAlign=bottom;dashed=1;labelBackgroundColor=none;rounded=0;entryX=1;entryY=0;entryDx=0;entryDy=0;exitX=0;exitY=0.5;exitDx=0;exitDy=0;" parent="kKK-9EgUeei59JqBfIfj-16" source="kKK-9EgUeei59JqBfIfj-53" target="kKK-9EgUeei59JqBfIfj-34" edge="1">
          <mxGeometry width="160" relative="1" as="geometry">
            <mxPoint x="491" y="306" as="sourcePoint" />
            <mxPoint x="651" y="306" as="targetPoint" />
          </mxGeometry>
        </mxCell>
        <mxCell id="OFAnYSlsn8Oz3mkXLUl3-9" value="&amp;lt;&amp;lt;include&amp;gt;&amp;gt;" style="edgeStyle=none;html=1;endArrow=open;verticalAlign=bottom;dashed=1;labelBackgroundColor=none;rounded=0;exitX=0;exitY=0.5;exitDx=0;exitDy=0;entryX=0.623;entryY=0.018;entryDx=0;entryDy=0;entryPerimeter=0;" parent="kKK-9EgUeei59JqBfIfj-16" source="kKK-9EgUeei59JqBfIfj-52" target="kKK-9EgUeei59JqBfIfj-34" edge="1">
          <mxGeometry width="160" relative="1" as="geometry">
            <mxPoint x="232" y="68" as="sourcePoint" />
            <mxPoint x="392" y="68" as="targetPoint" />
          </mxGeometry>
        </mxCell>
        <mxCell id="OFAnYSlsn8Oz3mkXLUl3-14" value="&amp;lt;&amp;lt;include&amp;gt;&amp;gt;" style="edgeStyle=none;html=1;endArrow=open;verticalAlign=bottom;dashed=1;labelBackgroundColor=none;rounded=0;exitX=0.5;exitY=0;exitDx=0;exitDy=0;entryX=0.5;entryY=1;entryDx=0;entryDy=0;" parent="kKK-9EgUeei59JqBfIfj-16" source="kKK-9EgUeei59JqBfIfj-30" target="kKK-9EgUeei59JqBfIfj-34" edge="1">
          <mxGeometry width="160" relative="1" as="geometry">
            <mxPoint x="132" y="679" as="sourcePoint" />
            <mxPoint x="292" y="679" as="targetPoint" />
          </mxGeometry>
        </mxCell>
        <mxCell id="kKK-9EgUeei59JqBfIfj-28" value="SEKRETARIAT" style="shape=umlActor;html=1;verticalLabelPosition=bottom;verticalAlign=top;align=center;" parent="1" vertex="1">
          <mxGeometry x="101" y="93" width="30" height="60" as="geometry" />
        </mxCell>
        <mxCell id="kKK-9EgUeei59JqBfIfj-31" value="PIMPINAN" style="shape=umlActor;html=1;verticalLabelPosition=bottom;verticalAlign=top;align=center;" parent="1" vertex="1">
          <mxGeometry x="936" y="244" width="30" height="60" as="geometry" />
        </mxCell>
        <mxCell id="kKK-9EgUeei59JqBfIfj-32" value="" style="edgeStyle=none;html=1;endArrow=none;verticalAlign=bottom;rounded=0;entryX=0;entryY=0.5;entryDx=0;entryDy=0;exitX=0.5;exitY=0.5;exitDx=0;exitDy=0;exitPerimeter=0;" parent="1" source="kKK-9EgUeei59JqBfIfj-28" target="kKK-9EgUeei59JqBfIfj-41" edge="1">
          <mxGeometry width="160" relative="1" as="geometry">
            <mxPoint x="154" y="224" as="sourcePoint" />
            <mxPoint x="319" y="210" as="targetPoint" />
          </mxGeometry>
        </mxCell>
        <mxCell id="kKK-9EgUeei59JqBfIfj-33" value="" style="edgeStyle=none;html=1;endArrow=none;verticalAlign=bottom;rounded=0;exitX=0.5;exitY=0.5;exitDx=0;exitDy=0;exitPerimeter=0;entryX=1;entryY=0.5;entryDx=0;entryDy=0;" parent="1" source="kKK-9EgUeei59JqBfIfj-31" target="kKK-9EgUeei59JqBfIfj-30" edge="1">
          <mxGeometry width="160" relative="1" as="geometry">
            <mxPoint x="169" y="471" as="sourcePoint" />
            <mxPoint x="901" y="123" as="targetPoint" />
          </mxGeometry>
        </mxCell>
        <mxCell id="kKK-9EgUeei59JqBfIfj-43" value="ADMIN" style="shape=umlActor;html=1;verticalLabelPosition=bottom;verticalAlign=top;align=center;" parent="1" vertex="1">
          <mxGeometry x="936" y="101" width="30" height="60" as="geometry" />
        </mxCell>
        <mxCell id="KPNC4NThqTOK_JKKGGno-2" value="" style="endArrow=none;html=1;rounded=0;exitX=0.5;exitY=0.5;exitDx=0;exitDy=0;exitPerimeter=0;entryX=0;entryY=0.5;entryDx=0;entryDy=0;" parent="1" source="kKK-9EgUeei59JqBfIfj-28" target="kKK-9EgUeei59JqBfIfj-40" edge="1">
          <mxGeometry width="50" height="50" relative="1" as="geometry">
            <mxPoint x="98" y="191" as="sourcePoint" />
            <mxPoint x="148" y="141" as="targetPoint" />
          </mxGeometry>
        </mxCell>
        <mxCell id="OFAnYSlsn8Oz3mkXLUl3-2" value="" style="endArrow=none;html=1;rounded=0;exitX=0.5;exitY=0.5;exitDx=0;exitDy=0;exitPerimeter=0;entryX=0;entryY=0.5;entryDx=0;entryDy=0;" parent="1" source="kKK-9EgUeei59JqBfIfj-28" target="kKK-9EgUeei59JqBfIfj-34" edge="1">
          <mxGeometry width="50" height="50" relative="1" as="geometry">
            <mxPoint x="-128" y="314" as="sourcePoint" />
            <mxPoint x="-78" y="264" as="targetPoint" />
          </mxGeometry>
        </mxCell>
        <mxCell id="OFAnYSlsn8Oz3mkXLUl3-10" value="" style="edgeStyle=none;html=1;endArrow=none;verticalAlign=bottom;rounded=0;entryX=0.5;entryY=0.5;entryDx=0;entryDy=0;entryPerimeter=0;exitX=1;exitY=0.5;exitDx=0;exitDy=0;" parent="1" source="kKK-9EgUeei59JqBfIfj-52" target="kKK-9EgUeei59JqBfIfj-43" edge="1">
          <mxGeometry width="160" relative="1" as="geometry">
            <mxPoint x="846" y="205" as="sourcePoint" />
            <mxPoint x="1006" y="205" as="targetPoint" />
          </mxGeometry>
        </mxCell>
        <mxCell id="OFAnYSlsn8Oz3mkXLUl3-11" value="" style="edgeStyle=none;html=1;endArrow=none;verticalAlign=bottom;rounded=0;exitX=1;exitY=0.5;exitDx=0;exitDy=0;entryX=0.5;entryY=0.5;entryDx=0;entryDy=0;entryPerimeter=0;" parent="1" source="kKK-9EgUeei59JqBfIfj-53" target="kKK-9EgUeei59JqBfIfj-43" edge="1">
          <mxGeometry width="160" relative="1" as="geometry">
            <mxPoint x="924" y="93" as="sourcePoint" />
            <mxPoint x="1084" y="93" as="targetPoint" />
          </mxGeometry>
        </mxCell>
        <mxCell id="OFAnYSlsn8Oz3mkXLUl3-13" value="" style="edgeStyle=none;html=1;endArrow=none;verticalAlign=bottom;rounded=0;exitX=1;exitY=0.5;exitDx=0;exitDy=0;entryX=0.5;entryY=0.5;entryDx=0;entryDy=0;entryPerimeter=0;" parent="1" source="kKK-9EgUeei59JqBfIfj-34" target="kKK-9EgUeei59JqBfIfj-43" edge="1">
          <mxGeometry width="160" relative="1" as="geometry">
            <mxPoint x="688" y="129" as="sourcePoint" />
            <mxPoint x="848" y="129" as="targetPoint" />
          </mxGeometry>
        </mxCell>
        <mxCell id="OFAnYSlsn8Oz3mkXLUl3-15" value="" style="edgeStyle=none;html=1;endArrow=none;verticalAlign=bottom;rounded=0;exitX=1;exitY=1;exitDx=0;exitDy=0;entryX=0.5;entryY=0.5;entryDx=0;entryDy=0;entryPerimeter=0;" parent="1" source="kKK-9EgUeei59JqBfIfj-34" target="kKK-9EgUeei59JqBfIfj-31" edge="1">
          <mxGeometry width="160" relative="1" as="geometry">
            <mxPoint x="667" y="220" as="sourcePoint" />
            <mxPoint x="827" y="220" as="targetPoint" />
          </mxGeometry>
        </mxCell>
      </root>
    </mxGraphModel>
  </diagram>
</mxfile>
